<?xml version="1.0" encoding="UTF-8"?>
<svg width="120px" height="120px" viewBox="0 0 120 120" version="1.1" xmlns="http://www.w3.org/2000/svg" xmlns:xlink="http://www.w3.org/1999/xlink">
    <title>3d animation</title>
    <defs>
        <linearGradient x1="31.4193034%" y1="42.305568%" x2="73.5384126%" y2="52.5453128%" id="linearGradient-1">
            <stop stop-color="#6E7AD8" offset="0%"></stop>
            <stop stop-color="#6D78D6" stop-opacity="0" offset="100%"></stop>
        </linearGradient>
        <linearGradient x1="45.7568336%" y1="50%" x2="54.2431664%" y2="65.7416714%" id="linearGradient-2">
            <stop stop-color="#E36559" offset="0%"></stop>
            <stop stop-color="#983029" offset="100%"></stop>
        </linearGradient>
        <linearGradient x1="45.7568336%" y1="50%" x2="54.2431664%" y2="65.7416714%" id="linearGradient-3">
            <stop stop-color="#983029" offset="0%"></stop>
            <stop stop-color="#3E1916" offset="100%"></stop>
        </linearGradient>
        <linearGradient x1="38.5188518%" y1="-4.85174315%" x2="57.358586%" y2="103.497603%" id="linearGradient-4">
            <stop stop-color="#99FFA8" offset="0%"></stop>
            <stop stop-color="#5CF1B2" offset="46.1085078%"></stop>
            <stop stop-color="#1F9AA5" offset="100%"></stop>
        </linearGradient>
        <linearGradient x1="50%" y1="0%" x2="50%" y2="100%" id="linearGradient-5">
            <stop stop-color="#66EEB7" offset="0%"></stop>
            <stop stop-color="#000000" offset="100%"></stop>
        </linearGradient>
        <linearGradient x1="31.4193034%" y1="39.3832383%" x2="73.5384126%" y2="53.5120174%" id="linearGradient-6">
            <stop stop-color="#6E7AD8" offset="0%"></stop>
            <stop stop-color="#6D78D6" stop-opacity="0" offset="100%"></stop>
        </linearGradient>
        <linearGradient x1="45.7568336%" y1="50%" x2="54.2431664%" y2="65.7416714%" id="linearGradient-7">
            <stop stop-color="#E36559" offset="0%"></stop>
            <stop stop-color="#983029" offset="100%"></stop>
        </linearGradient>
        <linearGradient x1="45.7568336%" y1="50%" x2="54.2431664%" y2="65.7416714%" id="linearGradient-8">
            <stop stop-color="#983029" offset="0%"></stop>
            <stop stop-color="#3E1916" offset="100%"></stop>
        </linearGradient>
        <linearGradient x1="38.5188518%" y1="-4.85174315%" x2="57.358586%" y2="103.497603%" id="linearGradient-9">
            <stop stop-color="#99FFA8" offset="0%"></stop>
            <stop stop-color="#5CF1B2" offset="46.1085078%"></stop>
            <stop stop-color="#1F9AA5" offset="100%"></stop>
        </linearGradient>
        <linearGradient x1="50%" y1="0%" x2="50%" y2="100%" id="linearGradient-10">
            <stop stop-color="#66EEB7" offset="0%"></stop>
            <stop stop-color="#000000" offset="100%"></stop>
        </linearGradient>
    </defs>
    <g id="assets" stroke="none" stroke-width="1" fill="none" fill-rule="evenodd">
        <g id="Group-21">
            <g id="Group-36-Copy-3">
                <g id="Group-24" transform="translate(60.000000, 16.250000)">
                    <path d="M17.9950822,74.0095624 C17.2678327,74.8123361 14.3911016,75.1235653 12.765339,75.2989405 C12.0033403,75.3804529 11.8494514,76.7167624 11.8494514,76.7167624 C31.3794251,87.8668122 41.2585877,92.9330021 41.486939,91.915332 L48.75,88.7475586 L17.9950822,74.0095624 Z" id="Fill-3" fill="url(#linearGradient-1)" opacity="0.5"></path>
                    <path d="M18.8901204,74.7441621 L18.8901204,74.7441621 L18.8901204,51.0512219 L11.2105639,51.8737562 L11.2105639,75.7643023 L11.2304205,75.7643023 C11.2999188,76.1990351 11.6002505,76.6115373 12.1487903,76.9252366 C13.5437194,77.7230702 15.9711939,77.6242672 17.579582,76.7004599 C18.5500754,76.1422234 18.9943677,75.4110818 18.8901204,74.7441621" id="Fill-1" fill="url(#linearGradient-2)"></path>
                    <path d="M18.8901204,66.1929403 L18.8901204,66.1929403 L18.8901204,42.5 L11.2105639,43.3225343 L11.2105639,67.2130804 L11.2304205,67.2130804 C11.2999188,67.6478133 11.6002505,68.0603155 12.1487903,68.3740147 C13.5437194,69.1718483 15.9711939,69.0730454 17.579582,68.1492381 C18.5500754,67.5910016 18.9943677,66.85986 18.8901204,66.1929403" id="Fill-1-Copy" fill="url(#linearGradient-3)" opacity="0.699999988"></path>
                    <path d="M15.2623118,0.0012350365 C7.53311372,0.0012350365 0,19.1467709 0,35.0021695 L0,35.0021695 C0,44.0574571 0.925815953,50.2894513 2.44981326,54.5651477 L2.44981326,54.5651477 C5.29427729,62.526193 10.2336171,63.7068879 15.2623118,63.7068879 L15.2623118,63.7068879 C22.996474,63.7068879 30.5271057,60.9157054 30.5271057,35.0021695 L30.5271057,35.0021695 C30.5271057,19.1467709 22.996474,0.0012350365 15.2623118,0.0012350365 Z" id="Fill-7" fill="url(#linearGradient-4)"></path>
                    <path d="M30.5248718,35.0034045 C30.5248718,60.9144704 22.9967222,63.7056529 15.26256,63.7056529 C10.2338653,63.7056529 5.2945255,62.527428 2.45006147,54.5663827 C12.293992,57.1821901 25.369591,53.5215419 25.801473,32.6889461 C26.3549769,5.60706572 15.26256,0 15.26256,0 C22.9967222,0 30.5248718,19.1480059 30.5248718,35.0034045" id="Fill-10" fill="url(#linearGradient-5)" opacity="0.300000012"></path>
                </g>
                <g id="Group-24-Copy" transform="translate(26.250000, 37.500000)">
                    <path d="M13.8044466,56.7744588 C13.2465566,57.3902852 11.0397492,57.6290364 9.79258882,57.7635708 C9.20804191,57.8261009 9.08999009,58.851215 9.08999009,58.851215 C23.0444905,68.4320751 30.1093275,72.832166 30.2845012,72.0514876 L35.8561644,69.6214148 L13.8044466,56.7744588 Z" id="Fill-3" fill="url(#linearGradient-6)" opacity="0.5"></path>
                    <path d="M14.4910512,57.3379874 L14.4910512,57.3379874 L14.4910512,39.1625811 L8.59988464,39.7935664 L8.59988464,58.1205606 L8.61511713,58.1205606 C8.66843085,58.4540543 8.89882231,58.7704944 9.31961992,59.0111404 C10.3897025,59.6231771 12.2518748,59.5473831 13.4857067,58.838709 C14.2301948,58.4104728 14.5710218,57.849597 14.4910512,57.3379874" id="Fill-1" fill="url(#linearGradient-7)"></path>
                    <path d="M14.4910512,50.778146 L14.4910512,50.778146 L14.4910512,32.6027397 L8.59988464,33.233725 L8.59988464,51.5607192 L8.61511713,51.5607192 C8.66843085,51.8942129 8.89882231,52.2106529 9.31961992,52.451299 C10.3897025,53.0633357 12.2518748,52.9875417 13.4857067,52.2788676 C14.2301948,51.8506313 14.5710218,51.2897556 14.4910512,50.778146" id="Fill-1-Copy" fill="url(#linearGradient-8)" opacity="0.699999988"></path>
                    <path d="M11.7080748,0.000947425262 C5.77882697,0.000947425262 0,14.6879338 0,26.8509794 L0,26.8509794 C0,33.7975014 0.710214978,38.5782092 1.8793088,41.8581955 L1.8793088,41.8581955 C4.0613634,47.9652987 7.85044599,48.8710373 11.7080748,48.8710373 L11.7080748,48.8710373 C17.6411308,48.8710373 23.4180537,46.7298562 23.4180537,26.8509794 L23.4180537,26.8509794 C23.4180537,14.6879338 17.6411308,0.000947425262 11.7080748,0.000947425262 Z" id="Fill-7" fill="url(#linearGradient-9)"></path>
                    <path d="M23.41634,26.8519268 C23.41634,46.7289088 17.6413212,48.8700899 11.7082652,48.8700899 C7.8506364,48.8700899 4.06155381,47.9662462 1.87949921,41.8591429 C9.43100753,43.8657896 19.4616041,41.0576212 19.7929108,25.0764518 C20.2175165,4.30131069 11.7082652,-2.84217094e-13 11.7082652,-2.84217094e-13 C17.6413212,-2.84217094e-13 23.41634,14.6888813 23.41634,26.8519268" id="Fill-10" fill="url(#linearGradient-10)" opacity="0.300000012"></path>
                </g>
            </g>
        </g>
    </g>
</svg>