<?xml version="1.0" encoding="UTF-8"?>
<svg width="120px" height="120px" viewBox="0 0 120 120" version="1.1" xmlns="http://www.w3.org/2000/svg" xmlns:xlink="http://www.w3.org/1999/xlink">
    <title>VR</title>
    <defs>
        <polygon id="path-1" points="0.471578947 0.674385965 9.74807018 0.674385965 9.74807018 19.762527 0.471578947 19.762527"></polygon>
        <path d="M29.834386,3.35929825 C39.6484211,-0.636491228 52.3375439,-0.774035088 59.5964912,6.30666667 C59.4084211,7.11578947 59.1859649,7.97192982 58.9466667,8.88 C56.7289377,17.3064199 53.4638377,17.584214 53.2509667,17.593372 L53.24,17.5936842 C44.7691228,15.2961404 17.674386,15.5066667 6.96842105,19.2757895 C6.96842105,19.2757895 2.76140351,17.6996491 1.24842105,11.4722807 C0.703859649,9.22877193 0.327017544,7.28631579 0.221052632,5.57754386 C3.83438596,5.44 7.58877193,5.97263158 10.9550877,6.60210526" id="path-3"></path>
        <linearGradient x1="50%" y1="0%" x2="50%" y2="100%" id="linearGradient-5">
            <stop stop-color="#7F8DA8" offset="0%"></stop>
            <stop stop-color="#000000" stop-opacity="0" offset="100%"></stop>
        </linearGradient>
        <linearGradient x1="50%" y1="0%" x2="50%" y2="100%" id="linearGradient-6">
            <stop stop-color="#5F69B5" offset="0%"></stop>
            <stop stop-color="#2B2B59" offset="100%"></stop>
        </linearGradient>
    </defs>
    <g id="assets" stroke="none" stroke-width="1" fill="none" fill-rule="evenodd">
        <g id="Group-23">
            <g id="Group-36-Copy-5">
                <g id="Group-31" transform="translate(27.500000, 20.000000)">
                    <path d="M5.95368421,39.2209123 C5.95368421,39.2209123 3.96631579,32.4945965 3.20210526,21.181614 C2.43789474,9.86863158 7.63508772,10.021614 9.16421053,11.7030175 C9.16421053,11.7030175 10.234386,2.22512281 30.5670175,0.237052632 C50.8996491,-1.74961404 59.3073684,9.41038596 59.3073684,9.41038596 L55.0273684,8.33950877 C55.0273684,8.33950877 59.7663158,10.4798596 61.4484211,13.690386 L59.1550877,13.3851228 C59.1550877,13.3851228 64.0463158,21.181614 60.0715789,36.1633684 C60.0715789,36.1633684 34.3887719,46.7114386 5.95368421,39.2209123" id="Fill-1" fill="#1F2146"></path>
                    <path d="M7.37950877,36.9614737 C7.37950877,36.9614737 1.33038596,38.8014737 0.339508772,42.2541053 C-1.02750877,47.017614 2.03003509,53.3362105 4.26301754,55.177614 C6.616,57.1172632 9.52898246,54.4442807 9.52898246,54.4442807" id="Fill-3" fill="#97BDC9"></path>
                    <g id="Group-7" transform="translate(56.140351, 35.268070)">
                        <mask id="mask-2" fill="white">
                            <use xlink:href="#path-1"></use>
                        </mask>
                        <g id="Clip-6"></g>
                        <path d="M2.62105263,0.674385965 C2.62105263,0.674385965 8.91298246,2.45403509 9.66035088,5.96701754 C10.3010526,8.97473684 7.27859649,17.0757895 5.73684211,18.8905263 C3.76280702,21.2147368 0.471578947,18.157193 0.471578947,18.157193" id="Fill-5" fill="#97BDC9" mask="url(#mask-2)"></path>
                    </g>
                    <path d="M7.53356522,40.2913684 C7.53356522,40.2913684 7.32947368,70.2548772 23.8403509,77.1854035 C40.3512281,84.1159298 49.1147368,74.1278596 53.3954386,63.3250526 C56.6635088,55.0787368 57.3350877,47.5229474 58.4929825,40.2913684 C58.4929825,40.2913684 53.2424561,32.8001404 53.6508772,21.7931228 C53.6508772,21.7931228 29.8024561,31.4247018 11.6101754,21.3341754 C11.6101754,21.3341754 12.0178947,34.7875088 7.53356522,40.2913684" id="Fill-8" fill="#FFB575"></path>
                    <path d="M54.2116491,46.5077895 C54.1098947,46.9162105 53.5849825,61.6032281 47.6895439,69.3372632 C39.8411228,79.6312982 31.1716491,78.3112982 24.1155088,77.2937544 C40.4460351,83.9962105 49.1386667,74.066386 53.3955088,63.3246316 C55.7337544,57.4249825 56.7421754,51.8797193 57.5505965,46.552 L54.2116491,46.5077895 Z" id="Fill-10" fill="#FFA269"></path>
                    <path d="M55.18,31.8830175 C47.9259649,29.4570526 42.8901754,28.8409123 32.9112281,28.9784561 C24.4880702,29.0949474 18.7919298,29.8689825 11.6101754,32.4942456 C2.33508772,35.8844211 1.92807018,40.0872281 4.05578947,48.8451228 C5.56877193,55.0724912 9.77578947,56.6493333 9.77578947,56.6493333 C20.4817544,52.8795088 47.5757895,52.6696842 56.0466667,54.9672281 C56.0466667,54.9672281 59.4607018,54.9672281 61.7533333,46.2535439 C63.6726316,38.9623158 64.5449123,35.0149474 55.18,31.8830175" id="Fill-12" fill="#050248"></path>
                    <g id="Group-16" transform="translate(2.807018, 37.373333)">
                        <mask id="mask-4" fill="white">
                            <use xlink:href="#path-3"></use>
                        </mask>
                        <g id="Clip-15"></g>
                        <path d="M58.9466667,8.88 C59.1859649,7.97192982 59.4084211,7.11578947 59.5964912,6.30666667 C52.3375439,-0.774035088 39.6484211,-0.636491228 29.834386,3.35929825 C23.7726316,5.82736842 17.6126316,7.84701754 10.9550877,6.60210526 C7.58877193,5.97263158 3.83438596,5.44 0.221052632,5.57754386 C0.327017544,7.28631579 0.703859649,9.22877193 1.24842105,11.4722807 C2.76140351,17.6996491 6.96842105,19.2757895 6.96842105,19.2757895 C17.674386,15.5066667 44.7691228,15.2961404 53.24,17.5936842 C53.24,17.5936842 56.6533333,17.5936842 58.9466667,8.88" id="Fill-14" fill="url(#linearGradient-5)" mask="url(#mask-4)"></path>
                    </g>
                    <path d="M6.90870175,54.4882105 C8.3802807,56.1197895 9.77536842,56.6489123 9.77536842,56.6489123 C20.4813333,52.8797895 47.5760702,52.6692632 56.0469474,54.9675088 C56.0469474,54.9675088 57.5072982,54.9661053 59.1599298,52.5282105 C46.1599298,48.5464561 23.5346667,47.7822456 6.90870175,54.4882105" id="Fill-17" fill="#342959"></path>
                    <path d="M55.18,31.8830175 C54.0908772,31.518807 53.0564912,31.2002105 52.0431579,30.9145965 C53.3,32.9321404 54.2880702,35.6521404 53.6508772,38.8317895 C52.945614,42.3602105 51.78,46.9602105 50.8031579,50.6352982 C53.8649123,51.1300351 56.6866667,51.7700351 59.1596491,52.5279298 C60.0326316,51.2381053 60.9603509,49.2675789 61.7533333,46.2535439 C63.6726316,38.9623158 64.5449123,35.0149474 55.18,31.8830175" id="Fill-19" fill="#4681D5" opacity="0.400000006"></path>
                    <path d="M13.1391579,14.1493333 C13.1391579,14.1493333 22.9230175,0.0847719298 45.5489825,6.65880702 L39.8928421,7.88126316 C39.8928421,7.88126316 49.676,9.10442105 52.276,14.9135439 L45.0900351,12.9261754 C45.0900351,12.9261754 49.2177544,16.4426667 49.5237193,18.4300351 L44.3258246,16.7479298 C44.3258246,16.7479298 40.6598596,20.9865263 27.3567018,20.1114386 C15.7377544,19.3472281 13.1391579,14.1493333 13.1391579,14.1493333" id="Fill-21" fill="url(#linearGradient-6)"></path>
                    <path d="M27.8150175,60.8783158 C27.8150175,60.8783158 28.5792281,51.3744561 32.4016842,51.1962105 C36.6788772,50.9969123 37.9055439,59.8593684 37.4971228,61.6937544 C37.3427368,62.3898947 28.9364211,64.5477895 27.8150175,60.8783158" id="Fill-23" fill="#FFB575"></path>
                    <path d="M29.993614,52.8650526 C29.993614,52.8650526 27.5774737,56.6032982 27.8153684,60.878386 C27.9171228,62.7127719 29.9550175,64.1394386 35.6630877,62.4075088 C35.6630877,62.4075088 28.7325614,63.6299649 28.9367719,59.5534737 C29.0665965,56.958386 29.993614,52.8650526 29.993614,52.8650526" id="Fill-25" fill="#FFA269"></path>
                    <path d="M30.0573333,68.1141754 C30.0573333,68.1141754 37.089614,70.0510175 42.6945263,63.8341754 C42.6945263,63.8341754 39.5352281,73.6180351 30.0573333,68.1141754" id="Fill-27" fill="#EF0088"></path>
                    <path d="M9.59270175,49.549193 C9.59270175,49.549193 5.81585965,41.0214737 8.99691228,37.8397193 C13.1646316,33.672 22.6909474,34.4656842 22.6909474,34.4656842 C22.6909474,34.4656842 13.4095439,36.5709474 10.5849825,40.0228772 C8.79901754,42.2060351 9.59270175,49.549193 9.59270175,49.549193" id="Fill-29" fill="#5EF7FD" opacity="0.400000006"></path>
                </g>
            </g>
        </g>
    </g>
</svg>